<svg width="169" height="114" viewBox="0 0 169 114" fill="none" xmlns="http://www.w3.org/2000/svg">
<path d="M5.28125 90.6921C5.68064 90.603 6.31109 90.5436 6.95144 90.5436C7.86576 90.5436 8.45 90.6987 8.8923 91.0552C9.26199 91.3292 9.47984 91.7484 9.47984 92.3062C9.47984 92.9862 9.02764 93.5869 8.28166 93.8609V93.8807C8.95172 94.0523 9.74391 94.6068 9.74391 95.6565C9.74391 96.2638 9.50295 96.7259 9.14646 97.0725C8.65465 97.5247 7.85256 97.736 6.70059 97.736C6.07014 97.736 5.58492 97.6931 5.28125 97.6502V90.6921ZM6.19557 93.5869H7.02406C7.99119 93.5869 8.55562 93.0819 8.55562 92.4019C8.55562 91.5701 7.92518 91.2466 7.00096 91.2466C6.57846 91.2466 6.3408 91.2797 6.19557 91.3094V93.5869ZM6.19557 96.9801C6.37381 97.0098 6.63457 97.023 6.95805 97.023C7.90207 97.023 8.77348 96.6764 8.77348 95.6466C8.77348 94.6828 7.94498 94.2834 6.94814 94.2834H6.19227V96.9801H6.19557Z" fill="white"/>
<path d="M12.1172 95.4486L11.3812 97.6766H10.4404L12.8434 90.5997H13.9459L16.362 97.6766H15.385L14.6291 95.4486H12.1172ZM14.4377 94.7323L13.7445 92.6924C13.5861 92.2336 13.4804 91.8111 13.3748 91.4018H13.3583C13.2494 91.821 13.1339 92.2501 12.9985 92.6825L12.3054 94.7323H14.4377Z" fill="white"/>
<path d="M17.3951 97.6734V90.5965H18.392L20.6563 94.1778C21.1811 95.0063 21.5904 95.7556 21.9271 96.4752L21.9469 96.4653C21.8644 95.5213 21.8446 94.6598 21.8446 93.5573V90.5965H22.7028V97.6734H21.7786L19.5307 94.0821C19.0389 93.2932 18.5669 92.4845 18.2104 91.7221L18.1741 91.732C18.2269 92.6232 18.25 93.4748 18.25 94.6499V97.6767H17.3951" fill="white"/>
<path d="M24.3003 90.5965H25.2146V94.0095H25.2443C25.4358 93.7355 25.6239 93.4847 25.8021 93.2536L27.9642 90.5965H29.0996L26.5382 93.6002L29.301 97.6734H28.2183L25.888 94.1943L25.2179 94.9733V97.6734H24.3036V90.5965" fill="white"/>
<path d="M38.2626 94.0622C38.2626 96.4982 36.7872 97.7888 34.9816 97.7888C33.1101 97.7888 31.7964 96.3398 31.7964 94.1976C31.7964 91.953 33.1959 90.4809 35.084 90.4809C37.0149 90.4809 38.2626 91.9596 38.2626 94.0622ZM32.7767 94.1745C32.7767 95.6862 33.5986 97.0429 35.0312 97.0429C36.4802 97.0429 37.2988 95.7093 37.2988 94.1019C37.2988 92.6957 36.5627 91.2269 35.0411 91.2269C33.5293 91.2269 32.7767 92.6231 32.7767 94.1745Z" fill="white"/>
<path d="M39.4509 90.5965H43.26V91.3623H40.3619V93.7157H43.0422V94.4683H40.3619V97.6734H39.4509V90.5965Z" fill="white"/>
<path d="M46.7886 90.6921C47.2507 90.5964 47.9108 90.5436 48.5413 90.5436C49.5183 90.5436 50.1488 90.7218 50.5878 91.1212C50.9443 91.4348 51.1456 91.9167 51.1456 92.4679C51.1456 93.4021 50.5581 94.0193 49.8121 94.2735V94.3032C50.3567 94.4946 50.6835 94.9963 50.8518 95.7324C51.0829 96.7193 51.2512 97.4026 51.3965 97.6766H50.4524C50.3369 97.4653 50.1818 96.8679 49.9804 95.9866C49.7725 95.0095 49.3929 94.6432 48.5644 94.6101H47.7029V97.6799H46.7886V90.6921ZM47.7029 93.9137H48.637C49.6107 93.9137 50.2313 93.3757 50.2313 92.5703C50.2313 91.6559 49.5711 91.2565 48.604 91.2466C48.165 91.2466 47.8481 91.2896 47.7029 91.3292V93.9137Z" fill="white"/>
<path d="M53.7566 97.6734L51.9642 90.5965H52.9281L53.7665 94.1778C53.9777 95.0592 54.1626 95.9438 54.2946 96.6237H54.3144C54.4266 95.9207 54.6478 95.079 54.892 94.1646L55.8361 90.5965H56.79L57.6482 94.1877C57.8495 95.0261 58.0377 95.8678 58.14 96.6105H58.1598C58.3116 95.8348 58.5064 95.0459 58.7308 94.1646L59.665 90.5965H60.5958L58.5889 97.6734H57.635L56.7438 93.9864C56.5226 93.0853 56.3774 92.3921 56.2817 91.6758H56.2619C56.1364 92.3789 55.9747 93.0721 55.7139 93.9864L54.7039 97.6734H53.7566Z" fill="white"/>
<path d="M62.0315 95.4486L61.2955 97.6766H60.3514L62.7511 90.5997H63.8536L66.2697 97.6766H65.296L64.5401 95.4486H62.0315ZM64.352 94.7323L63.6588 92.6924C63.5004 92.2336 63.3948 91.8111 63.2891 91.4018H63.2693C63.1637 91.821 63.0482 92.2501 62.9161 92.6825L62.2197 94.7323H64.352Z" fill="white"/>
<path d="M67.3096 97.6734V90.5965H68.3097L70.5773 94.1778C71.1022 95.0063 71.5115 95.7556 71.8481 96.4752L71.8679 96.4653C71.7854 95.5213 71.7656 94.6598 71.7656 93.5573V90.5965H72.6271V97.6734H71.7029L69.4551 94.0821C68.9633 93.2932 68.4946 92.4845 68.1315 91.7221L68.1018 91.732C68.1513 92.6232 68.1744 93.4748 68.1744 94.6499V97.6767H67.3096" fill="white"/>
<path d="M74.218 90.6921C74.7758 90.603 75.4393 90.5436 76.1622 90.5436C77.4726 90.5436 78.41 90.8473 79.0273 91.4249C79.6577 92.0025 80.0241 92.8211 80.0241 93.9665C80.0241 95.1218 79.6676 96.0658 79.0074 96.716C78.3473 97.3795 77.2547 97.736 75.8783 97.736C75.2281 97.736 74.6801 97.7063 74.218 97.6502V90.6921ZM75.129 96.9471C75.3601 96.99 75.6968 96.9999 76.0566 96.9999C78.0106 96.9999 79.0669 95.9073 79.0669 93.9995C79.0768 92.3293 78.1327 91.2665 76.1985 91.2665C75.7265 91.2665 75.37 91.3094 75.129 91.3622V96.9471Z" fill="white"/>
<path d="M82.206 95.4486L81.4699 97.6766H80.5259L82.9288 90.5997H84.0313L86.4442 97.6766H85.4671L84.7113 95.4486H82.206ZM84.5264 94.7323L83.8333 92.6924C83.6748 92.2336 83.5692 91.8111 83.4702 91.4018H83.4471C83.3414 91.821 83.2259 92.2501 83.0939 92.6825L82.4007 94.7323H84.5264Z" fill="white"/>
<path d="M20.9962 79.5586C21.554 79.4727 22.2142 79.41 22.9371 79.41C24.2508 79.41 25.1816 79.717 25.8022 80.2913C26.4326 80.869 26.799 81.6876 26.799 82.8329C26.799 83.9882 26.4425 84.9322 25.7823 85.5825C25.1222 86.246 24.0263 86.6024 22.6532 86.6024C22.0063 86.6024 21.4583 86.5727 20.9962 86.5199V79.5586ZM21.9072 85.8136C22.1383 85.8565 22.475 85.8664 22.8314 85.8664C24.7855 85.8664 25.8451 84.7738 25.8451 82.866C25.855 81.1958 24.9109 80.1329 22.98 80.1329C22.508 80.1329 22.1515 80.1791 21.9105 80.2286V85.8136H21.9072Z" fill="white"/>
<path d="M31.6512 83.2225H28.8983V85.774H31.9648V86.5398H27.984V79.4629H31.8096V80.2287H28.8983V82.4666H31.6512V83.2225Z" fill="white"/>
<path d="M34.8002 86.5398L32.4896 79.4629H33.4766L34.579 82.9485C34.8827 83.9057 35.1468 84.7639 35.3349 85.5957H35.3547C35.556 84.7771 35.8465 83.8859 36.1634 82.9584L37.3583 79.4629H38.3353L35.8036 86.5398H34.8002Z" fill="white"/>
<path d="M42.7682 83.2225H40.0187V85.774H43.0851V86.5398H39.1044V79.4629H42.9234V80.2287H40.0187V82.4666H42.7682V83.2225Z" fill="white"/>
<path d="M44.2667 79.4629H45.1843V85.774H48.2079V86.5398H44.2667V79.4629Z" fill="white"/>
<path d="M54.8622 82.9288C54.8622 85.3614 53.3835 86.6553 51.5779 86.6553C49.7097 86.6553 48.396 85.2063 48.396 83.0641C48.396 80.8163 49.7922 79.3474 51.6803 79.3474C53.6145 79.3474 54.8622 80.8295 54.8622 82.9288ZM49.3697 83.0443C49.3697 84.556 50.1883 85.9094 51.6275 85.9094C53.0765 85.9094 53.8951 84.5791 53.8951 82.9717C53.8951 81.5655 53.159 80.0934 51.6341 80.0934C50.1256 80.0934 49.3697 81.4896 49.3697 83.0443Z" fill="white"/>
<path d="M56.0472 79.5454C56.4862 79.4728 57.0639 79.41 57.8 79.41C58.7011 79.41 59.3645 79.6213 59.7837 79.9976C60.1732 80.3343 60.4043 80.8492 60.4043 81.4796C60.4043 82.12 60.2161 82.625 59.8563 82.9914C59.3744 83.5063 58.5888 83.7671 57.6943 83.7671C57.4237 83.7671 57.1728 83.7572 56.9616 83.7043V86.5397H56.0472V79.5454ZM56.9616 82.9584C57.1629 83.0112 57.4105 83.031 57.7174 83.031C58.8199 83.031 59.49 82.4963 59.49 81.5192C59.49 80.5851 58.8298 80.1329 57.8198 80.1329C57.4204 80.1329 57.1134 80.1659 56.9583 80.2088V82.9584H56.9616Z" fill="white"/>
<path d="M67.4647 83.4337C67.4152 82.4435 67.3524 81.2618 67.3623 80.3772H67.3326C67.0917 81.209 66.7979 82.1002 66.4414 83.064L65.1904 86.4968H64.5006L63.3552 83.1268C63.0185 82.1299 62.7379 81.2189 62.5366 80.3772H62.5135C62.4937 81.2585 62.4442 82.4435 62.3749 83.5063L62.1867 86.5398H61.3153L61.8071 79.4629H62.9723L64.1804 82.8858C64.4742 83.7572 64.7151 84.5362 64.8901 85.269H64.9231C65.1013 84.556 65.3555 83.777 65.669 82.8858L66.9266 79.4629H68.0951L68.5374 86.5398H67.6429L67.4647 83.4337Z" fill="white"/>
<path d="M73.6075 83.2225H70.8579V85.774H73.9244V86.5398H69.9436V79.4629H73.7692V80.2287H70.8579V82.4666H73.6075V83.2225Z" fill="white"/>
<path d="M75.1093 86.5398V79.4629H76.1061L78.3737 83.0442C78.8985 83.8727 79.3078 84.622 79.6445 85.3449L79.6643 85.335C79.5818 84.391 79.562 83.5295 79.562 82.427V79.4662H80.4202V86.5431H79.496L77.2515 82.9518C76.7563 82.1662 76.2843 81.3575 75.9278 80.5918L75.8948 80.6017C75.9476 81.4929 75.9675 82.3445 75.9675 83.5195V86.5431H75.1093" fill="white"/>
<path d="M83.3612 80.2419H81.2091V79.4629H86.4474V80.2419H84.2854V86.5398H83.3612V80.2419Z" fill="white"/>
<path d="M49.4887 101.641L49.9673 103.413C50.063 103.803 50.1587 104.163 50.2247 104.522H50.2478C50.3304 104.169 50.4459 103.796 50.5647 103.42L51.1489 101.641H51.6936L52.2448 103.384C52.3768 103.8 52.4792 104.169 52.5617 104.522H52.5848C52.6442 104.169 52.7399 103.803 52.8555 103.39L53.3638 101.641H54.0041L52.8555 105.126H52.2646L51.72 103.463C51.5946 103.073 51.4922 102.727 51.4031 102.318H51.3899C51.3008 102.737 51.1919 103.097 51.0664 103.47L50.4921 105.126H49.9012L48.8252 101.641H49.4887Z" fill="white"/>
<path d="M55.0043 101.641L55.4829 103.413C55.5786 103.803 55.6743 104.163 55.7403 104.522H55.7635C55.846 104.169 55.9615 103.796 56.0803 103.42L56.6613 101.641H57.2059L57.7571 103.384C57.8892 103.8 57.9915 104.169 58.074 104.522H58.0971C58.1565 104.169 58.2522 103.803 58.3711 103.39L58.8794 101.641H59.5197L58.3711 105.126H57.7802L57.2356 103.463C57.1102 103.073 57.0079 102.727 56.9187 102.318H56.9055C56.8164 102.737 56.7075 103.097 56.582 103.47L56.0077 105.126H55.4169L54.3408 101.641H55.0043Z" fill="white"/>
<path d="M60.5199 101.641L60.9985 103.413C61.0942 103.803 61.19 104.163 61.256 104.522H61.2791C61.3616 104.169 61.4771 103.796 61.596 103.42L62.1769 101.641H62.7215L63.2728 103.384C63.4048 103.8 63.5071 104.169 63.5896 104.522H63.6127C63.6722 104.169 63.7679 103.803 63.8867 103.39L64.395 101.641H65.0354L63.8867 105.126H63.2959L62.7512 103.463C62.6258 103.073 62.5235 102.727 62.4344 102.318H62.4212C62.332 102.737 62.2231 103.097 62.0977 103.47L61.5233 105.126H60.9325L59.8564 101.641H60.5199Z" fill="white"/>
<path d="M65.2466 104.754C65.2466 104.493 65.4314 104.301 65.6889 104.301C65.9463 104.301 66.1246 104.489 66.1246 104.754C66.1246 105.014 65.9463 105.206 65.6757 105.206C65.4248 105.206 65.2466 105.011 65.2466 104.754Z" fill="white"/>
<path d="M66.93 100.014H67.5703V102.202H67.5835C67.8113 101.813 68.2239 101.568 68.7982 101.568C69.6894 101.568 70.31 102.288 70.31 103.341C70.31 104.588 69.498 105.206 68.7025 105.206C68.1876 105.206 67.7717 105.011 67.501 104.559H67.4878L67.4515 105.127H66.897C66.9102 104.889 66.9267 104.536 66.9267 104.225V100.014H66.93ZM67.5703 103.73C67.5703 103.81 67.5769 103.889 67.6 103.961C67.7189 104.4 68.1018 104.704 68.5738 104.704C69.2603 104.704 69.6564 104.163 69.6564 103.364C69.6564 102.664 69.2867 102.067 68.587 102.067C68.1513 102.067 67.7387 102.37 67.6066 102.846C67.5835 102.925 67.5703 103.011 67.5703 103.113V103.73Z" fill="white"/>
<path d="M71.1253 102.73C71.1253 102.321 71.1187 101.968 71.0956 101.644H71.6633L71.693 102.334H71.7161C71.8779 101.865 72.2773 101.572 72.713 101.572C72.779 101.572 72.8318 101.578 72.8912 101.585V102.182C72.8252 102.169 72.7592 102.169 72.6701 102.169C72.2112 102.169 71.8878 102.499 71.7986 102.974C71.7854 103.06 71.7755 103.169 71.7755 103.268V105.127H71.1253V102.73Z" fill="white"/>
<path d="M76.5352 100.014V104.225C76.5352 104.536 76.5518 104.889 76.565 105.127H75.9906L75.9609 104.522H75.9378C75.7464 104.912 75.3173 105.206 74.7363 105.206C73.8748 105.206 73.2048 104.493 73.2048 103.433C73.1982 102.275 73.9408 101.568 74.8056 101.568C75.3602 101.568 75.72 101.819 75.8817 102.093H75.8949V100.014H76.5352ZM75.8949 103.06C75.8949 102.981 75.8883 102.872 75.8652 102.793C75.7695 102.397 75.4163 102.067 74.9278 102.067C74.2577 102.067 73.8583 102.644 73.8583 103.407C73.8583 104.113 74.2214 104.697 74.9113 104.697C75.347 104.697 75.7431 104.41 75.8619 103.942C75.885 103.856 75.8916 103.77 75.8916 103.668V103.06H75.8949Z" fill="white"/>
<path d="M77.3934 104.754C77.3934 104.493 77.5783 104.301 77.8357 104.301C78.0932 104.301 78.2714 104.489 78.2714 104.754C78.2714 105.014 78.0932 105.206 77.8225 105.206C77.5684 105.206 77.3934 105.011 77.3934 104.754Z" fill="white"/>
<path d="M79.0735 102.73C79.0735 102.321 79.0669 101.968 79.0438 101.644H79.6116L79.6413 102.334H79.6644C79.8261 101.865 80.2255 101.572 80.6612 101.572C80.7272 101.572 80.78 101.578 80.8394 101.585V102.182C80.7734 102.169 80.7074 102.169 80.6183 102.169C80.1595 102.169 79.836 102.499 79.7469 102.974C79.7337 103.06 79.7238 103.169 79.7238 103.268V105.127H79.0735V102.73Z" fill="white"/>
<path d="M81.9287 101.641L82.4073 103.413C82.503 103.803 82.5988 104.163 82.6648 104.522H82.6879C82.7704 104.169 82.8859 103.796 83.0048 103.42L83.5857 101.641H84.1303L84.6849 103.384C84.8169 103.8 84.9192 104.169 85.0017 104.522H85.0248C85.0843 104.169 85.18 103.803 85.2988 103.39L85.8071 101.641H86.4475L85.2988 105.126H84.708L84.1633 103.463C84.0379 103.073 83.9356 102.727 83.8465 102.318H83.8333C83.7441 102.737 83.6352 103.097 83.5098 103.47L82.9354 105.126H82.3446L81.2686 101.641H81.9287Z" fill="white"/>
<path d="M99.0664 99.0861L100.473 104.39H100.489L102.001 99.0861H102.74L104.258 104.39H104.278L105.691 99.0861H106.282L104.572 105.143H103.945L102.374 99.7232H102.357L100.793 105.143H100.152L98.4326 99.0861H99.0664Z" fill="white"/>
<path d="M107.077 103.697C107.133 103.905 107.219 104.09 107.341 104.252C107.464 104.417 107.615 104.552 107.8 104.658C107.985 104.767 108.21 104.82 108.47 104.82C108.87 104.82 109.183 104.717 109.408 104.513C109.635 104.308 109.791 104.037 109.876 103.697H110.424C110.309 104.196 110.094 104.579 109.787 104.853C109.477 105.123 109.038 105.259 108.474 105.259C108.12 105.259 107.813 105.199 107.556 105.077C107.298 104.955 107.087 104.79 106.926 104.575C106.764 104.364 106.642 104.116 106.566 103.836C106.487 103.555 106.45 103.262 106.45 102.948C106.45 102.661 106.49 102.377 106.566 102.1C106.645 101.822 106.764 101.575 106.926 101.357C107.087 101.139 107.298 100.964 107.556 100.832C107.813 100.7 108.12 100.634 108.474 100.634C108.833 100.634 109.14 100.703 109.394 100.845C109.649 100.987 109.857 101.172 110.015 101.4C110.173 101.631 110.289 101.892 110.358 102.189C110.428 102.486 110.457 102.786 110.444 103.093H106.998C106.995 103.291 107.021 103.493 107.077 103.697ZM109.787 102.067C109.721 101.879 109.626 101.714 109.507 101.572C109.385 101.426 109.236 101.311 109.064 101.225C108.889 101.136 108.695 101.093 108.474 101.093C108.249 101.093 108.048 101.136 107.873 101.225C107.698 101.314 107.553 101.43 107.431 101.572C107.308 101.717 107.213 101.882 107.14 102.073C107.067 102.261 107.021 102.456 106.998 102.654H109.9C109.89 102.446 109.853 102.252 109.787 102.067Z" fill="white"/>
<path d="M113.999 103.697C114.055 103.905 114.141 104.09 114.263 104.252C114.385 104.417 114.537 104.552 114.722 104.658C114.907 104.767 115.131 104.82 115.392 104.82C115.791 104.82 116.105 104.717 116.329 104.513C116.554 104.308 116.712 104.037 116.798 103.697H117.346C117.231 104.196 117.016 104.579 116.709 104.853C116.399 105.123 115.96 105.259 115.395 105.259C115.042 105.259 114.735 105.199 114.478 105.077C114.22 104.955 114.009 104.79 113.847 104.575C113.686 104.364 113.563 104.116 113.487 103.836C113.408 103.555 113.369 103.262 113.369 102.948C113.369 102.661 113.408 102.377 113.487 102.1C113.567 101.822 113.686 101.575 113.847 101.357C114.009 101.139 114.22 100.964 114.478 100.832C114.735 100.7 115.042 100.634 115.395 100.634C115.755 100.634 116.059 100.703 116.316 100.845C116.57 100.987 116.778 101.172 116.937 101.4C117.095 101.631 117.211 101.892 117.28 102.189C117.349 102.486 117.379 102.786 117.366 103.093H113.92C113.917 103.291 113.943 103.493 113.999 103.697ZM116.709 102.067C116.643 101.879 116.547 101.714 116.428 101.572C116.306 101.426 116.158 101.311 115.986 101.225C115.811 101.136 115.616 101.093 115.395 101.093C115.171 101.093 114.97 101.136 114.795 101.225C114.62 101.314 114.474 101.43 114.352 101.572C114.23 101.717 114.134 101.882 114.062 102.073C113.989 102.261 113.943 102.456 113.92 102.654H116.821C116.811 102.446 116.775 102.252 116.709 102.067Z" fill="white"/>
<path d="M118.604 100.766V101.506H118.63C118.775 101.235 118.964 101.02 119.198 100.869C119.432 100.717 119.733 100.641 120.096 100.641C120.389 100.641 120.66 100.71 120.898 100.852C121.139 100.994 121.297 101.209 121.38 101.496C121.512 101.209 121.71 100.991 121.971 100.852C122.231 100.71 122.509 100.641 122.806 100.641C123.796 100.641 124.291 101.152 124.291 102.176V105.143H123.743V102.199C123.743 101.836 123.664 101.562 123.509 101.374C123.354 101.185 123.076 101.09 122.684 101.09C122.446 101.09 122.251 101.133 122.093 101.222C121.938 101.311 121.812 101.426 121.72 101.575C121.627 101.723 121.561 101.892 121.525 102.08C121.489 102.268 121.469 102.466 121.469 102.667V105.143H120.921V102.176C120.921 102.03 120.904 101.889 120.871 101.756C120.838 101.624 120.789 101.509 120.716 101.41C120.644 101.311 120.548 101.235 120.426 101.176C120.304 101.119 120.155 101.09 119.983 101.09C119.752 101.09 119.551 101.129 119.379 101.212C119.208 101.294 119.069 101.407 118.964 101.552C118.858 101.697 118.775 101.865 118.726 102.06C118.673 102.255 118.647 102.469 118.647 102.701V105.143H118.099V100.766H118.604Z" fill="white"/>
<path d="M125.839 100.766V101.598H125.856C125.984 101.294 126.189 101.057 126.476 100.888C126.763 100.72 127.087 100.638 127.453 100.638C127.793 100.638 128.09 100.7 128.344 100.822C128.595 100.948 128.806 101.116 128.975 101.327C129.143 101.539 129.269 101.786 129.348 102.067C129.43 102.347 129.47 102.641 129.47 102.951C129.47 103.262 129.43 103.559 129.348 103.839C129.265 104.12 129.143 104.364 128.975 104.579C128.806 104.79 128.598 104.958 128.344 105.08C128.093 105.202 127.796 105.262 127.453 105.262C127.291 105.262 127.13 105.242 126.968 105.202C126.806 105.163 126.654 105.103 126.516 105.024C126.377 104.945 126.255 104.846 126.146 104.727C126.04 104.608 125.958 104.47 125.898 104.311H125.882V106.754H125.334V100.766H125.839ZM128.839 102.281C128.783 102.057 128.697 101.859 128.579 101.684C128.46 101.509 128.308 101.367 128.123 101.255C127.938 101.146 127.714 101.09 127.453 101.09C127.153 101.09 126.899 101.139 126.697 101.242C126.496 101.344 126.334 101.479 126.212 101.648C126.09 101.819 126.004 102.014 125.955 102.242C125.905 102.466 125.882 102.704 125.882 102.955C125.882 103.182 125.908 103.407 125.964 103.628C126.021 103.852 126.11 104.051 126.235 104.225C126.361 104.4 126.522 104.542 126.72 104.655C126.922 104.763 127.166 104.82 127.453 104.82C127.714 104.82 127.935 104.763 128.123 104.655C128.308 104.546 128.46 104.4 128.579 104.225C128.697 104.051 128.783 103.852 128.839 103.628C128.896 103.404 128.922 103.179 128.922 102.955C128.922 102.73 128.896 102.506 128.839 102.281Z" fill="white"/>
<path d="M133.121 100.826C133.385 100.951 133.606 101.116 133.784 101.327C133.962 101.535 134.101 101.78 134.193 102.06C134.286 102.341 134.332 102.638 134.332 102.955C134.332 103.272 134.286 103.569 134.193 103.849C134.101 104.13 133.966 104.374 133.784 104.582C133.606 104.79 133.385 104.958 133.121 105.077C132.856 105.199 132.556 105.259 132.213 105.259C131.87 105.259 131.569 105.199 131.305 105.077C131.041 104.955 130.82 104.79 130.642 104.582C130.463 104.374 130.325 104.126 130.232 103.849C130.14 103.569 130.094 103.272 130.094 102.955C130.094 102.638 130.14 102.341 130.232 102.06C130.325 101.78 130.463 101.535 130.642 101.327C130.82 101.119 131.041 100.951 131.305 100.826C131.569 100.7 131.87 100.641 132.213 100.641C132.553 100.641 132.856 100.704 133.121 100.826ZM131.526 101.251C131.328 101.36 131.167 101.499 131.034 101.674C130.906 101.849 130.807 102.05 130.741 102.271C130.675 102.496 130.642 102.724 130.642 102.955C130.642 103.186 130.675 103.413 130.741 103.638C130.807 103.862 130.906 104.06 131.034 104.235C131.163 104.41 131.328 104.552 131.526 104.658C131.724 104.767 131.952 104.82 132.213 104.82C132.474 104.82 132.701 104.767 132.899 104.658C133.097 104.552 133.259 104.41 133.391 104.235C133.52 104.06 133.619 103.859 133.688 103.638C133.754 103.413 133.787 103.186 133.787 102.955C133.787 102.724 133.754 102.496 133.688 102.271C133.622 102.047 133.523 101.849 133.391 101.674C133.259 101.499 133.097 101.357 132.899 101.251C132.701 101.143 132.474 101.09 132.213 101.09C131.952 101.09 131.724 101.143 131.526 101.251Z" fill="white"/>
<path d="M135.279 100.766L136.425 104.516H136.441L137.537 100.766H138.151L139.247 104.516H139.263L140.412 100.766H140.993L139.551 105.143H138.953L137.847 101.463H137.831L136.738 105.143H136.138L134.695 100.766H135.279Z" fill="white"/>
<path d="M141.986 103.697C142.043 103.905 142.132 104.09 142.25 104.252C142.373 104.417 142.524 104.552 142.713 104.658C142.897 104.767 143.119 104.82 143.383 104.82C143.782 104.82 144.096 104.717 144.32 104.513C144.548 104.308 144.703 104.037 144.789 103.697H145.337C145.221 104.196 145.007 104.579 144.7 104.853C144.389 105.123 143.95 105.259 143.383 105.259C143.029 105.259 142.722 105.199 142.465 105.077C142.208 104.955 141.996 104.79 141.835 104.575C141.673 104.364 141.554 104.116 141.475 103.836C141.396 103.555 141.356 103.262 141.356 102.948C141.356 102.661 141.396 102.377 141.475 102.1C141.551 101.822 141.673 101.575 141.835 101.357C141.996 101.139 142.208 100.964 142.465 100.832C142.722 100.7 143.026 100.634 143.383 100.634C143.742 100.634 144.049 100.703 144.304 100.845C144.558 100.987 144.766 101.172 144.924 101.4C145.083 101.631 145.198 101.892 145.267 102.189C145.337 102.486 145.366 102.786 145.353 103.093H141.904C141.904 103.291 141.93 103.493 141.986 103.697ZM144.696 102.067C144.63 101.879 144.538 101.714 144.416 101.572C144.294 101.426 144.145 101.311 143.973 101.225C143.799 101.136 143.604 101.093 143.383 101.093C143.158 101.093 142.957 101.136 142.782 101.225C142.607 101.314 142.462 101.43 142.34 101.572C142.217 101.717 142.122 101.882 142.049 102.073C141.977 102.261 141.927 102.456 141.904 102.654H144.805C144.799 102.446 144.762 102.252 144.696 102.067Z" fill="white"/>
<path d="M146.591 100.766V101.793H146.611C146.75 101.436 146.964 101.162 147.258 100.971C147.552 100.779 147.898 100.69 148.304 100.707V101.241C148.057 101.232 147.829 101.261 147.628 101.341C147.426 101.416 147.251 101.525 147.103 101.667C146.954 101.809 146.839 101.978 146.759 102.172C146.677 102.367 146.637 102.582 146.637 102.813V105.146H146.089V100.769H146.591" fill="white"/>
<path d="M151.318 100.766L152.797 104.499L154.176 100.766H154.724L152.78 105.807C152.701 105.991 152.625 106.147 152.552 106.269C152.483 106.391 152.407 106.486 152.321 106.556C152.239 106.625 152.14 106.678 152.027 106.708C151.915 106.737 151.77 106.754 151.598 106.754C151.489 106.747 151.404 106.744 151.341 106.741C151.281 106.737 151.229 106.727 151.182 106.711V106.262C151.245 106.275 151.308 106.282 151.367 106.292C151.43 106.302 151.493 106.305 151.555 106.305C151.678 106.305 151.777 106.288 151.856 106.255C151.932 106.222 152.001 106.176 152.06 106.117C152.117 106.057 152.166 105.985 152.209 105.899C152.249 105.813 152.291 105.721 152.338 105.618L152.529 105.127L150.74 100.766H151.318Z" fill="white"/>
<path d="M158.058 100.826C158.322 100.951 158.543 101.116 158.725 101.327C158.903 101.535 159.038 101.78 159.134 102.06C159.226 102.341 159.273 102.638 159.273 102.955C159.273 103.272 159.226 103.569 159.134 103.849C159.042 104.13 158.906 104.374 158.725 104.582C158.543 104.79 158.325 104.958 158.058 105.077C157.794 105.199 157.494 105.259 157.15 105.259C156.81 105.259 156.51 105.199 156.243 105.077C155.978 104.955 155.757 104.79 155.579 104.582C155.398 104.374 155.262 104.126 155.17 103.849C155.077 103.569 155.031 103.272 155.031 102.955C155.031 102.638 155.081 102.341 155.17 102.06C155.262 101.78 155.398 101.535 155.579 101.327C155.757 101.119 155.978 100.951 156.243 100.826C156.507 100.7 156.807 100.641 157.15 100.641C157.494 100.641 157.797 100.704 158.058 100.826ZM156.467 101.251C156.269 101.36 156.107 101.499 155.975 101.674C155.843 101.849 155.747 102.05 155.681 102.271C155.615 102.496 155.582 102.724 155.582 102.955C155.582 103.186 155.615 103.413 155.681 103.638C155.747 103.862 155.843 104.06 155.975 104.235C156.107 104.41 156.269 104.552 156.467 104.658C156.665 104.767 156.893 104.82 157.15 104.82C157.411 104.82 157.639 104.767 157.837 104.658C158.032 104.552 158.197 104.41 158.325 104.235C158.457 104.06 158.553 103.859 158.622 103.638C158.688 103.413 158.721 103.186 158.721 102.955C158.721 102.724 158.688 102.496 158.622 102.271C158.556 102.047 158.457 101.849 158.325 101.674C158.193 101.499 158.032 101.357 157.837 101.251C157.639 101.143 157.411 101.09 157.15 101.09C156.893 101.09 156.665 101.143 156.467 101.251Z" fill="white"/>
<path d="M163.214 105.143V104.354H163.194C163.049 104.648 162.841 104.872 162.567 105.027C162.29 105.183 161.986 105.262 161.649 105.262C161.365 105.262 161.124 105.226 160.923 105.146C160.725 105.07 160.563 104.961 160.438 104.82C160.312 104.678 160.223 104.506 160.164 104.301C160.108 104.097 160.075 103.866 160.075 103.605V100.763H160.623V103.611C160.633 104.008 160.728 104.308 160.903 104.509C161.078 104.714 161.385 104.813 161.821 104.813C162.055 104.813 162.26 104.763 162.428 104.664C162.597 104.565 162.735 104.433 162.844 104.272C162.956 104.107 163.036 103.918 163.088 103.707C163.141 103.496 163.164 103.278 163.164 103.057V100.76H163.719V105.136H163.214" fill="white"/>
<path d="M151.757 6.78961C151.757 6.78961 143.076 11.8926 132.038 22.6532C121.287 33.1298 108.408 49.0033 99.5384 69.181C97.9936 72.6963 101.166 72.4157 101.166 72.4157H118.178C118.178 72.4157 119.29 63.5862 124.043 50.9673C128.803 38.3484 137.194 21.9435 151.757 6.78961Z" fill="white"/>
<path d="M163.59 76.0862C163.59 76.0862 160.573 68.9103 155.242 60.391C149.912 51.8716 142.27 42.0122 133.015 36.6517C133.015 36.6517 137.359 42.3159 141.749 50.0826C146.149 57.8427 150.605 67.7055 150.783 74.2674C150.783 74.2674 150.833 76.0829 152.694 76.0829H163.59" fill="white"/>
<path d="M133.702 80.0043C133.398 79.8128 133.081 79.6511 132.761 79.5257C132.434 79.4002 132.107 79.3111 131.767 79.2583C131.427 79.2055 131.048 79.1659 130.625 79.1362C130.206 79.1098 129.741 79.0966 129.242 79.0966H126.77C126.77 79.0966 124.727 79.0966 124.727 81.0935V96.2111H125.895C125.895 96.2111 127.06 96.2111 127.06 94.8017V89.4049H128.387C128.387 89.4049 129.718 89.4049 130.988 90.9629L135.266 96.2078H136.778C136.778 96.2078 138.29 96.2078 136.999 94.6597L132.054 88.7612C132.619 88.5533 133.121 88.2991 133.56 87.9856C134.005 87.672 134.388 87.3089 134.715 86.8831C135.038 86.4639 135.283 85.9886 135.444 85.4638C135.609 84.9389 135.689 84.3646 135.689 83.7375C135.689 83.2885 135.646 82.8759 135.553 82.503C135.464 82.1267 135.332 81.79 135.154 81.4863C134.976 81.1793 134.764 80.9087 134.52 80.6578C134.282 80.4169 134.005 80.199 133.702 80.0043ZM133.256 83.9124C133.256 84.2128 133.233 84.49 133.193 84.7508C133.154 85.0116 133.094 85.2525 133.012 85.477C132.929 85.6948 132.83 85.9061 132.705 86.0942C132.579 86.2857 132.431 86.4639 132.262 86.6256C132.078 86.8039 131.866 86.9557 131.642 87.0745C131.414 87.1934 131.167 87.2825 130.899 87.3386C130.635 87.398 130.351 87.4376 130.054 87.4706C129.754 87.497 129.437 87.5102 129.104 87.5102H128.077C128.077 87.5102 127.054 87.5102 127.054 86.1008V81.0506H129.358C129.681 81.0506 129.982 81.0605 130.256 81.0869C130.53 81.1067 130.774 81.143 130.995 81.186C131.213 81.2289 131.417 81.2916 131.612 81.3642C131.8 81.4401 131.982 81.5325 132.147 81.6382C132.338 81.7603 132.497 81.8989 132.635 82.0607C132.777 82.2158 132.893 82.394 132.979 82.5855C133.071 82.7802 133.137 82.9849 133.183 83.206C133.233 83.4305 133.256 83.6648 133.256 83.9124ZM114.306 86.7082V86.6157C114.689 86.4342 115.032 86.2229 115.333 85.9721C115.633 85.7245 115.894 85.4407 116.108 85.1238C116.326 84.8003 116.488 84.4669 116.6 84.1038C116.709 83.7441 116.765 83.3612 116.765 82.9585C116.765 82.5987 116.729 82.2587 116.656 81.9484C116.58 81.6382 116.478 81.3477 116.33 81.0803C116.184 80.813 115.996 80.572 115.768 80.3575C115.541 80.1396 115.27 79.9515 114.953 79.7864C114.666 79.6346 114.379 79.5158 114.075 79.42C113.778 79.3243 113.471 79.255 113.161 79.2154C112.851 79.1758 112.458 79.1461 111.989 79.1263C111.524 79.1065 110.979 79.0966 110.352 79.0966H107.751C107.751 79.0966 105.711 79.0966 105.711 81.0935V96.2111H110.731C111.326 96.2111 111.867 96.1847 112.355 96.1286C112.841 96.0791 113.273 95.9966 113.649 95.8909C114.026 95.7886 114.389 95.6467 114.745 95.4684C115.098 95.2869 115.435 95.069 115.765 94.8182C116.046 94.6102 116.297 94.3693 116.514 94.0986C116.736 93.8279 116.93 93.5342 117.095 93.2074C117.257 92.8839 117.382 92.534 117.468 92.1544C117.551 91.7815 117.59 91.3821 117.59 90.953C117.59 90.4083 117.518 89.9033 117.373 89.4445C117.231 88.9923 117.016 88.5797 116.729 88.2133C116.445 87.8469 116.098 87.5367 115.696 87.2858C115.287 87.0415 114.828 86.8468 114.306 86.7082ZM114.115 84.6155C114.045 84.797 113.943 84.9554 113.818 85.1007C113.692 85.2525 113.54 85.3779 113.365 85.4869C113.181 85.6024 113.002 85.6948 112.821 85.774C112.643 85.8499 112.464 85.9061 112.293 85.9424C112.121 85.9787 111.9 86.0051 111.633 86.0249C111.362 86.0414 111.045 86.0513 110.682 86.0513H108.035V81.0407H110.273C110.682 81.0407 111.045 81.0473 111.362 81.0572C111.682 81.0704 111.956 81.0902 112.19 81.11C112.421 81.1364 112.643 81.176 112.851 81.2388C113.062 81.3048 113.26 81.3873 113.448 81.4929C113.603 81.5787 113.738 81.6844 113.854 81.8032C113.966 81.9253 114.059 82.0574 114.128 82.2092C114.201 82.361 114.253 82.5228 114.29 82.7043C114.323 82.8826 114.342 83.0773 114.342 83.2819C114.342 83.5493 114.319 83.7903 114.286 84.0147C114.243 84.2326 114.191 84.4339 114.115 84.6155ZM114.881 89.461C114.976 89.669 115.049 89.9066 115.095 90.1707C115.141 90.4347 115.164 90.7285 115.164 91.052C115.164 91.3524 115.138 91.6263 115.088 91.8739C115.039 92.1214 114.96 92.336 114.861 92.5274C114.758 92.7189 114.626 92.8971 114.468 93.0655C114.306 93.2338 114.115 93.3955 113.897 93.5441C113.672 93.6959 113.435 93.818 113.174 93.9138C112.917 94.0161 112.636 94.0821 112.342 94.1283C112.048 94.1778 111.702 94.2108 111.296 94.2339C110.9 94.257 110.438 94.2669 109.929 94.2669H108.985C108.985 94.2669 108.038 94.2669 108.038 92.8575V87.946H110.685C111.085 87.946 111.441 87.9526 111.748 87.9691C112.055 87.979 112.322 88.0021 112.54 88.0285C112.758 88.0549 112.969 88.1011 113.167 88.1605C113.372 88.2199 113.563 88.3024 113.748 88.3949C114.032 88.5434 114.27 88.7018 114.461 88.8801C114.646 89.0616 114.788 89.2498 114.881 89.461ZM148.489 79.0999H146.492C146.492 79.0999 144.502 79.0999 144.502 81.0968V96.2144H148.535C149.245 96.2144 149.889 96.1913 150.476 96.1418C151.057 96.0956 151.579 96.0263 152.034 95.9371C152.493 95.8447 152.945 95.7094 153.394 95.5245C153.843 95.343 154.292 95.1119 154.737 94.8413C155.282 94.4914 155.771 94.0656 156.206 93.5804C156.639 93.0886 157.018 92.5307 157.342 91.9003C157.665 91.2764 157.909 90.6097 158.068 89.9033C158.23 89.1969 158.312 88.4576 158.312 87.6753C158.312 86.8402 158.23 86.0645 158.078 85.3416C157.926 84.6221 157.692 83.9619 157.381 83.3579C157.064 82.7538 156.695 82.2092 156.259 81.7273C155.823 81.2454 155.318 80.8196 154.754 80.4565C154.427 80.2452 154.061 80.0538 153.661 79.8887C153.262 79.727 152.826 79.5818 152.361 79.4629C151.892 79.3441 151.331 79.2517 150.687 79.1923C150.047 79.1296 149.314 79.0999 148.489 79.0999ZM146.832 81.0506H148.608C149.133 81.0506 149.621 81.0737 150.054 81.11C150.496 81.1529 150.892 81.2124 151.242 81.2916C151.598 81.3741 151.938 81.483 152.268 81.6118C152.602 81.7438 152.922 81.9022 153.232 82.0871C153.668 82.3445 154.054 82.6581 154.388 83.0179C154.721 83.3843 154.995 83.7969 155.223 84.2623C155.447 84.7277 155.612 85.2426 155.724 85.8037C155.837 86.3649 155.893 86.9788 155.893 87.6357C155.893 88.3057 155.84 88.9131 155.741 89.4742C155.639 90.0254 155.487 90.5305 155.279 90.9761C155.077 91.4217 154.827 91.8244 154.523 92.1842C154.216 92.5406 153.866 92.8509 153.457 93.1216C153.137 93.3394 152.8 93.521 152.443 93.6728C152.09 93.8213 151.714 93.9402 151.324 94.0194C150.938 94.0953 150.519 94.1646 150.064 94.2009C149.611 94.2405 149.126 94.2603 148.608 94.2603H147.72C147.439 94.2603 146.707 94.2108 146.832 92.2634V81.0506Z" fill="white"/>
<path d="M91.7815 78.3704H91.5043V105.255H91.7815V78.3704Z" fill="white"/>
<path d="M94.4651 78.3704H94.1879V105.255H94.4651V78.3704Z" fill="white"/>
</svg>
