<svg width="544" height="426" viewBox="0 0 544 426" fill="none" xmlns="http://www.w3.org/2000/svg">
<path d="M505.747 278.242C506.288 277.858 506.935 277.651 507.599 277.651C508.262 277.651 508.91 277.858 509.451 278.242L523.495 288.206C525.24 289.445 524.367 292.195 522.228 292.2H492.977C490.831 292.2 489.953 289.447 491.705 288.206L505.747 278.242ZM507.6 287.1C508.131 287.1 508.64 286.889 509.015 286.514C509.39 286.139 509.601 285.63 509.601 285.1C509.601 284.569 509.39 284.06 509.015 283.685C508.64 283.31 508.131 283.099 507.6 283.099C507.07 283.099 506.561 283.31 506.186 283.685C505.811 284.06 505.6 284.569 505.6 285.1C505.6 285.63 505.811 286.139 506.186 286.514C506.561 286.889 507.07 287.1 507.6 287.1ZM494.4 294.6V304.2H499.2V294.6H494.4ZM495.999 306.6C493.128 306.6 490.8 308.928 490.8 311.801V312.6C490.8 312.918 490.927 313.224 491.152 313.449C491.377 313.674 491.682 313.8 492 313.8H507.6V306.6H495.999ZM513.6 297V294.6H508.8V301.8C509.702 300.597 511.023 299.776 512.501 299.501C512.671 298.574 513.055 297.725 513.6 297ZM506.4 304.2V294.6H501.6V304.2H506.4ZM514.8 301.8V300.6C514.8 299.645 515.179 298.73 515.855 298.054C516.53 297.379 517.445 297 518.4 297H523.2C524.155 297 525.071 297.379 525.746 298.054C526.421 298.73 526.8 299.645 526.8 300.6V301.8H528C528.955 301.8 529.871 302.179 530.546 302.854C531.221 303.53 531.6 304.445 531.6 305.4V309H526.8V307.8C526.8 307.482 526.674 307.177 526.449 306.952C526.224 306.726 525.918 306.6 525.6 306.6C525.282 306.6 524.977 306.726 524.752 306.952C524.527 307.177 524.4 307.482 524.4 307.8V309H517.2V307.8C517.2 307.482 517.074 307.177 516.849 306.952C516.624 306.726 516.318 306.6 516 306.6C515.682 306.6 515.377 306.726 515.152 306.952C514.927 307.177 514.8 307.482 514.8 307.8V309H510V305.4C510 304.445 510.379 303.53 511.055 302.854C511.73 302.179 512.645 301.8 513.6 301.8H514.8ZM517.2 300.6V301.8H524.4V300.6C524.4 300.282 524.274 299.977 524.049 299.752C523.824 299.526 523.518 299.4 523.2 299.4H518.4C518.082 299.4 517.777 299.526 517.552 299.752C517.327 299.977 517.2 300.282 517.2 300.6ZM526.8 311.4H531.6V315C531.6 315.955 531.221 316.87 530.546 317.546C529.871 318.221 528.955 318.6 528 318.6H513.6C512.645 318.6 511.73 318.221 511.055 317.546C510.379 316.87 510 315.955 510 315V311.4H514.8V312.6C514.8 312.918 514.927 313.224 515.152 313.449C515.377 313.674 515.682 313.8 516 313.8C516.318 313.8 516.624 313.674 516.849 313.449C517.074 313.224 517.2 312.918 517.2 312.6V311.4H524.4V312.6C524.4 312.918 524.527 313.224 524.752 313.449C524.977 313.674 525.282 313.8 525.6 313.8C525.918 313.8 526.224 313.674 526.449 313.449C526.674 313.224 526.8 312.918 526.8 312.6V311.4Z" fill="#8DC63F"/>
<circle cx="510.5" cy="297.5" r="33.5" fill="#8DC63F" fill-opacity="0.12"/>
<circle cx="444.5" cy="57.5" r="33.5" fill="#8DC63F" fill-opacity="0.12"/>
<path d="M445.009 37L474.019 48.6636L445.009 60.2523L423.364 51.5794C422.025 52.7009 421.058 54.4953 420.909 56.514H421.43C422.025 56.514 422.471 56.9626 422.471 57.5607V60.3271C422.471 60.9252 422.025 61.3738 421.43 61.3738H421.058L422.471 75.8785C422.546 76.4766 422.099 77 421.504 77H418.901C418.306 77 417.86 76.4766 417.86 75.8785L419.347 61.3738H418.975C418.38 61.3738 417.86 60.9252 417.86 60.3271V57.5607C417.86 56.9626 418.38 56.514 418.975 56.514H419.794C419.942 54.3458 420.909 52.4766 422.248 51.1308L416 48.6636L445.009 37ZM444.191 62.3458L445.009 62.6449L445.828 62.3458L461.745 55.9159L462.936 69.1495C463.01 70.0467 462.415 70.4206 461.597 70.0467L455.349 66.8318C454.53 66.3832 453.191 66.4579 452.448 66.9065L446.423 70.3458C445.679 70.7944 444.34 70.7944 443.596 70.3458L437.571 66.9065C436.827 66.4579 435.488 66.3832 434.744 66.8318L428.422 70.0467C427.604 70.4953 427.009 70.0467 427.083 69.1495L428.273 55.9159L444.191 62.3458Z" fill="#8DC63F"/>
<circle cx="33.5" cy="299.5" r="33.5" fill="#8DC63F" fill-opacity="0.12"/>
<path d="M20 277H52V301H48V281H20V313H36V317H16V277H20ZM24 285H44V289H24V285ZM44 293H24V297H44V293ZM24 301H38V305H24V301ZM50 311H56V315H50V321H46V315H40V311H46V305H50V311Z" fill="#8DC63F"/>
<circle cx="125.5" cy="47.5" r="33.5" fill="#8DC63F" fill-opacity="0.12"/>
<path d="M147 52.9996C147.003 51.4976 146.63 50.0187 145.915 48.6977C145.2 47.3768 144.166 46.2557 142.907 45.4368C141.648 44.6179 140.204 44.1271 138.706 44.0092C137.209 43.8913 135.706 44.1501 134.334 44.7619C132.962 45.3737 131.765 46.3191 130.853 47.5119C129.94 48.7048 129.34 50.1071 129.108 51.5911C128.876 53.0751 129.019 54.5936 129.524 56.0081C130.029 57.4227 130.88 58.6883 132 59.6896V70.9996L138 68.1586L144 70.9996V59.6896C144.943 58.8487 145.698 57.818 146.215 56.6651C146.732 55.5122 146.999 54.2631 147 52.9996ZM141 66.2596L138 64.8391L135 66.2596V61.4746C136.939 62.1748 139.061 62.1748 141 61.4746V66.2596ZM138 58.9996C136.813 58.9996 135.653 58.6477 134.667 57.9885C133.68 57.3292 132.911 56.3921 132.457 55.2957C132.003 54.1994 131.884 52.993 132.115 51.8291C132.347 50.6652 132.918 49.5961 133.757 48.757C134.596 47.9179 135.666 47.3464 136.829 47.1149C137.993 46.8834 139.2 47.0022 140.296 47.4564C141.392 47.9105 142.33 48.6795 142.989 49.6662C143.648 50.6529 144 51.8129 144 52.9996C143.998 54.5903 143.365 56.1153 142.24 57.2401C141.116 58.3649 139.591 58.9976 138 58.9996Z" fill="#8DC63F"/>
<path d="M139.5 30.5H135V29C134.998 28.2051 134.681 27.4434 134.119 26.8813C133.557 26.3192 132.795 26.0024 132 26H120C119.205 26.0024 118.443 26.3192 117.881 26.8813C117.319 27.4434 117.002 28.2051 117 29V30.5H112.5C111.705 30.5024 110.943 30.8192 110.381 31.3813C109.819 31.9434 109.502 32.7051 109.5 33.5V65C109.502 65.7949 109.819 66.5566 110.381 67.1187C110.943 67.6808 111.705 67.9976 112.5 68H126V65H112.5V33.5H117V38H135V33.5H139.5V41H142.5V33.5C142.498 32.7051 142.181 31.9434 141.619 31.3813C141.057 30.8192 140.295 30.5024 139.5 30.5ZM132 35H120V29H132V35Z" fill="#8DC63F"/>
<path d="M26.4998 266C23.1665 226.5 33.3998 132.3 101 71.4997M155 30.4997C196 5.66634 305.2 -27.0003 414 40.9997M464.5 84.9998C485.666 105.5 527.5 170.4 525.5 266M511.5 331.5C506.833 345.166 493 378.1 475 400.5M39.9998 331.5C48.3331 352.333 71.5998 400.2 97.9998 425" stroke="#8DC63F" stroke-width="0.6"/>
</svg>
