<svg width="130" height="51" viewBox="0 0 130 51" fill="none" xmlns="http://www.w3.org/2000/svg">
<path d="M52.7586 31V20.568H55.3346L57.0146 25.208C57.1212 25.5067 57.2226 25.8213 57.3186 26.152C57.4146 26.4827 57.5159 26.808 57.6226 27.128H57.6866C57.7932 26.808 57.8892 26.4827 57.9746 26.152C58.0706 25.8213 58.1719 25.5067 58.2786 25.208L59.9266 20.568H62.4866V31H60.3426V27.176C60.3426 26.8347 60.3586 26.456 60.3906 26.04C60.4332 25.6133 60.4759 25.1867 60.5186 24.76C60.5719 24.3333 60.6146 23.9547 60.6466 23.624H60.5826L59.7346 26.104L58.2466 30.088H56.9506L55.4626 26.104L54.6306 23.624H54.5666C54.6092 23.9547 54.6519 24.3333 54.6946 24.76C54.7372 25.1867 54.7746 25.6133 54.8066 26.04C54.8492 26.456 54.8706 26.8347 54.8706 27.176V31H52.7586ZM65.3136 31V20.568H67.6656V31H65.3136ZM70.4936 31V20.568H72.9096L75.6296 25.752L76.6536 28.056H76.7176C76.6749 27.5013 76.6162 26.8827 76.5416 26.2C76.4669 25.5173 76.4296 24.8667 76.4296 24.248V20.568H78.6696V31H76.2536L73.5336 25.8L72.5096 23.528H72.4456C72.4989 24.104 72.5576 24.7227 72.6216 25.384C72.6962 26.0453 72.7336 26.6853 72.7336 27.304V31H70.4936ZM85.6137 31.192C84.259 31.192 83.2244 30.792 82.5097 29.992C81.795 29.192 81.4377 27.9173 81.4377 26.168V20.568H83.8057V26.408C83.8057 27.432 83.9604 28.1467 84.2697 28.552C84.579 28.9573 85.027 29.16 85.6137 29.16C86.2004 29.16 86.6537 28.9573 86.9737 28.552C87.2937 28.1467 87.4537 27.432 87.4537 26.408V20.568H89.7257V26.168C89.7257 27.9173 89.3737 29.192 88.6697 29.992C87.9764 30.792 86.9577 31.192 85.6137 31.192ZM91.8538 31V29.576L96.4618 22.552H92.2858V20.568H99.3578V21.992L94.7498 29.016H99.4058V31H91.8538ZM103.982 25.72L103.726 26.68H105.95L105.71 25.72C105.571 25.1973 105.427 24.6427 105.278 24.056C105.139 23.4693 105 22.904 104.862 22.36H104.798C104.67 22.9147 104.536 23.4853 104.398 24.072C104.27 24.648 104.131 25.1973 103.982 25.72ZM100.206 31L103.47 20.568H106.302L109.566 31H107.07L106.43 28.52H103.246L102.606 31H100.206Z" fill="white"/>
<path d="M25 1L2 10.5L25 20L47.5 10.5L25 1Z" fill="white"/>
<path d="M25 22L37.5 17V23.5L18 30L12 28V17L25 22Z" fill="white"/>
<path d="M8 35L18 32C17.2 33.8667 19 40.4444 20 43.5L10.5 46.5C5.3 45.3 6.66667 38.3333 8 35Z" fill="white"/>
<path d="M22.5 42.5C20.5 40.1 19.6667 34.1667 19.5 31.5L26.5 29C25.3 32.6 27.6667 38.1667 29 40.5L22.5 42.5Z" fill="white"/>
<path d="M31.5 40C28.3 37.2 28.1667 31.1667 28.5 28.5L37.5 25.5C36.3 29.9 39 35 40.5 37L31.5 40Z" fill="white"/>
<path d="M25 44L26.5 49L28.5 45.5L32.5 47.5L31 42L25 44Z" fill="white"/>
<path d="M42.5 24.5C41.1667 24.6667 38.7 26.1 39.5 30.5C39.8333 32 41.1 35 43.5 35C44.8333 34.5 47 32.5 45 28.5C44.1667 27.6667 42.5 27.1 42.5 31.5M2 10.5L25 1L47.5 10.5L25 20L2 10.5ZM37.5 17L25 22L12 17V28L18 30L37.5 23.5V17ZM18 32L8 35C6.66667 38.3333 5.3 45.3 10.5 46.5L20 43.5C19 40.4444 17.2 33.8667 18 32ZM19.5 31.5C19.6667 34.1667 20.5 40.1 22.5 42.5L29 40.5C27.6667 38.1667 25.3 32.6 26.5 29L19.5 31.5ZM28.5 28.5C28.1667 31.1667 28.3 37.2 31.5 40L40.5 37C39 35 36.3 29.9 37.5 25.5L28.5 28.5ZM26.5 49L25 44L31 42L32.5 47.5L28.5 45.5L26.5 49Z" stroke="white"/>
<path d="M91.0642 32C91.0642 32 89.8992 32.6848 88.4181 34.1287C86.9754 35.5346 85.2471 37.6647 84.0569 40.3724C83.8496 40.8441 84.2753 40.8064 84.2753 40.8064H86.5582C86.5582 40.8064 86.7074 39.6216 87.3453 37.9282C87.984 36.2349 89.1099 34.0335 91.0642 32Z" fill="#EDEDED"/>
<path d="M92.6521 41.299C92.6521 41.299 92.2473 40.3361 91.5319 39.1929C90.8166 38.0496 89.7912 36.7266 88.5492 36.0073C88.5492 36.0073 89.1321 36.7673 89.7212 37.8096C90.3116 38.8509 90.9096 40.1744 90.9335 41.055C90.9335 41.055 90.9402 41.2986 91.19 41.2986H92.6521" fill="#EDEDED"/>
<path d="M88.6413 41.8247C88.6005 41.7991 88.558 41.7774 88.515 41.7605C88.4712 41.7437 88.4273 41.7317 88.3817 41.7246C88.3361 41.7176 88.2852 41.7122 88.2285 41.7083C88.1722 41.7047 88.1098 41.7029 88.0429 41.7029H87.7111C87.7111 41.7029 87.4369 41.7029 87.4369 41.9709V43.9996H87.5937C87.5937 43.9996 87.7501 43.9996 87.7501 43.8104V43.0862H87.9282C87.9282 43.0862 88.1067 43.0862 88.2772 43.2953L88.8512 43.9991H89.0541C89.0541 43.9991 89.257 43.9991 89.0838 43.7914L88.4203 42.9999C88.496 42.972 88.5633 42.9378 88.6222 42.8958C88.682 42.8537 88.7334 42.805 88.7773 42.7478C88.8207 42.6916 88.8535 42.6278 88.8752 42.5574C88.8973 42.4869 88.9079 42.4099 88.9079 42.3257C88.9079 42.2655 88.9022 42.2101 88.8898 42.1601C88.8778 42.1096 88.8601 42.0644 88.8362 42.0236C88.8123 41.9824 88.7839 41.9461 88.7511 41.9125C88.7192 41.8801 88.682 41.8509 88.6413 41.8247ZM88.5815 42.3492C88.5815 42.3895 88.5784 42.4267 88.5731 42.4617C88.5678 42.4967 88.5598 42.529 88.5487 42.5591C88.5376 42.5884 88.5244 42.6167 88.5075 42.642C88.4907 42.6677 88.4708 42.6916 88.4482 42.7133C88.4234 42.7372 88.395 42.7576 88.3649 42.7735C88.3343 42.7895 88.3011 42.8014 88.2652 42.809C88.2298 42.8169 88.1917 42.8222 88.1518 42.8267C88.1115 42.8302 88.069 42.832 88.0243 42.832H87.8865C87.8865 42.832 87.7492 42.832 87.7492 42.6429V41.9652H88.0584C88.1018 41.9652 88.1421 41.9665 88.1789 41.97C88.2156 41.9727 88.2484 41.9776 88.2781 41.9833C88.3073 41.9891 88.3348 41.9975 88.3609 42.0072C88.3862 42.0174 88.4105 42.0298 88.4327 42.044C88.4584 42.0604 88.4796 42.079 88.4982 42.1007C88.5173 42.1215 88.5328 42.1454 88.5443 42.1711C88.5567 42.1973 88.5655 42.2247 88.5717 42.2544C88.5784 42.2845 88.5815 42.316 88.5815 42.3492ZM86.0386 42.7244V42.7119C86.09 42.6876 86.136 42.6592 86.1763 42.6256C86.2167 42.5924 86.2516 42.5543 86.2804 42.5117C86.3097 42.4683 86.3314 42.4236 86.3464 42.3749C86.3611 42.3266 86.3686 42.2752 86.3686 42.2212C86.3686 42.1729 86.3637 42.1273 86.354 42.0856C86.3438 42.044 86.33 42.005 86.3101 41.9691C86.2906 41.9333 86.2654 41.9009 86.2348 41.8721C86.2043 41.8429 86.1679 41.8177 86.1254 41.7955C86.0869 41.7751 86.0483 41.7592 86.0076 41.7463C85.9677 41.7335 85.9265 41.7242 85.8849 41.7189C85.8433 41.7136 85.7906 41.7096 85.7277 41.7069C85.6652 41.7043 85.5921 41.7029 85.508 41.7029H85.1589C85.1589 41.7029 84.8852 41.7029 84.8852 41.9709V43.9996H85.5589C85.6386 43.9996 85.7113 43.996 85.7768 43.9885C85.8419 43.9818 85.9 43.9708 85.9505 43.9566C86.0009 43.9429 86.0497 43.9238 86.0975 43.8999C86.1449 43.8755 86.1901 43.8463 86.2344 43.8126C86.272 43.7847 86.3057 43.7524 86.3349 43.7161C86.3646 43.6798 86.3907 43.6403 86.4129 43.5965C86.4346 43.5531 86.4514 43.5061 86.4629 43.4552C86.474 43.4051 86.4793 43.3515 86.4793 43.294C86.4793 43.2209 86.4696 43.1531 86.4501 43.0915C86.431 43.0309 86.4022 42.9755 86.3637 42.9263C86.3256 42.8772 86.2791 42.8355 86.2251 42.8019C86.1701 42.7691 86.1086 42.743 86.0386 42.7244ZM86.0129 42.4435C86.0036 42.4679 85.9899 42.4892 85.973 42.5086C85.9562 42.529 85.9358 42.5458 85.9124 42.5605C85.8876 42.576 85.8636 42.5884 85.8393 42.599C85.8154 42.6092 85.7914 42.6167 85.7684 42.6216C85.7454 42.6265 85.7157 42.63 85.6798 42.6327C85.6435 42.6349 85.601 42.6362 85.5523 42.6362H85.197V41.9638H85.4973C85.5523 41.9638 85.601 41.9647 85.6435 41.966C85.6865 41.9678 85.7232 41.9705 85.7547 41.9731C85.7857 41.9767 85.8154 41.982 85.8433 41.9904C85.8716 41.9993 85.8982 42.0103 85.9234 42.0245C85.9443 42.036 85.9624 42.0502 85.9779 42.0661C85.993 42.0825 86.0054 42.1003 86.0147 42.1206C86.0244 42.141 86.0315 42.1627 86.0364 42.1871C86.0408 42.211 86.0435 42.2371 86.0435 42.2646C86.0435 42.3005 86.0404 42.3328 86.0359 42.3629C86.0302 42.3921 86.0231 42.4192 86.0129 42.4435ZM86.1157 43.0938C86.1285 43.1217 86.1383 43.1536 86.1445 43.189C86.1507 43.2244 86.1538 43.2638 86.1538 43.3073C86.1538 43.3476 86.1502 43.3843 86.1436 43.4175C86.1369 43.4508 86.1263 43.4796 86.113 43.5052C86.0993 43.5309 86.0816 43.5549 86.0603 43.5774C86.0386 43.6 86.0129 43.6217 85.9837 43.6417C85.9536 43.662 85.9217 43.6784 85.8867 43.6913C85.8521 43.705 85.8145 43.7139 85.7751 43.7201C85.7356 43.7267 85.6891 43.7311 85.6346 43.7342C85.5815 43.7373 85.5195 43.7387 85.4513 43.7387H85.3246C85.3246 43.7387 85.1975 43.7387 85.1975 43.5495V42.8905H85.5527C85.6063 42.8905 85.6541 42.8913 85.6953 42.8936C85.7365 42.8949 85.7724 42.898 85.8016 42.9015C85.8309 42.9051 85.8592 42.9113 85.8858 42.9192C85.9132 42.9272 85.9389 42.9383 85.9637 42.9507C86.0018 42.9706 86.0337 42.9919 86.0594 43.0158C86.0842 43.0402 86.1033 43.0654 86.1157 43.0938ZM90.6256 41.7034H90.3577C90.3577 41.7034 90.0906 41.7034 90.0906 41.9714V44H90.6318C90.7271 44 90.8134 43.9969 90.8923 43.9903C90.9702 43.9841 91.0402 43.9748 91.1014 43.9628C91.1629 43.9504 91.2236 43.9322 91.2838 43.9074C91.3441 43.8831 91.4043 43.8521 91.4641 43.8157C91.5372 43.7688 91.6028 43.7117 91.6612 43.6465C91.7192 43.5805 91.7702 43.5057 91.8136 43.4211C91.857 43.3374 91.8898 43.2479 91.911 43.1531C91.9327 43.0583 91.9438 42.9591 91.9438 42.8541C91.9438 42.7421 91.9327 42.638 91.9124 42.541C91.892 42.4444 91.8605 42.3558 91.8189 42.2748C91.7764 42.1937 91.7268 42.1206 91.6683 42.056C91.6098 41.9913 91.5421 41.9342 91.4663 41.8854C91.4225 41.8571 91.3733 41.8314 91.3197 41.8092C91.2661 41.7875 91.2077 41.7681 91.1452 41.7521C91.0823 41.7362 91.007 41.7238 90.9206 41.7158C90.8347 41.7074 90.7364 41.7034 90.6256 41.7034ZM90.4033 41.9652H90.6416C90.712 41.9652 90.7776 41.9683 90.8356 41.9731C90.8949 41.9789 90.9481 41.9869 90.995 41.9975C91.0429 42.0086 91.0885 42.0232 91.1328 42.0405C91.1775 42.0582 91.2205 42.0794 91.2621 42.1042C91.3206 42.1388 91.3724 42.1809 91.4172 42.2291C91.4619 42.2783 91.4987 42.3337 91.5292 42.3961C91.5593 42.4586 91.5815 42.5277 91.5966 42.603C91.6116 42.6783 91.6191 42.7607 91.6191 42.8488C91.6191 42.9387 91.6121 43.0202 91.5988 43.0955C91.585 43.1695 91.5647 43.2373 91.5368 43.2971C91.5097 43.3569 91.4761 43.4109 91.4353 43.4592C91.3941 43.507 91.3472 43.5487 91.2923 43.585C91.2493 43.6142 91.2041 43.6386 91.1563 43.6589C91.1089 43.6789 91.0584 43.6948 91.0061 43.7055C90.9543 43.7156 90.898 43.7249 90.8369 43.7298C90.7762 43.7351 90.7111 43.7378 90.6416 43.7378H90.5224C90.4848 43.7378 90.3865 43.7311 90.4033 43.4698V41.9652Z" fill="#EDEDED"/>
<path d="M59.7087 41V39.032H60.2007C60.5047 39.032 60.7357 39.117 60.8937 39.287C61.0517 39.455 61.1307 39.695 61.1307 40.007C61.1307 40.321 61.0517 40.565 60.8937 40.739C60.7377 40.913 60.5107 41 60.2127 41H59.7087ZM59.9577 40.796H60.1827C60.4127 40.796 60.5847 40.727 60.6987 40.589C60.8147 40.449 60.8727 40.255 60.8727 40.007C60.8727 39.759 60.8147 39.569 60.6987 39.437C60.5847 39.303 60.4127 39.236 60.1827 39.236H59.9577V40.796ZM62.4889 41.036C62.3589 41.036 62.2409 41.006 62.1349 40.946C62.0289 40.884 61.9449 40.796 61.8829 40.682C61.8209 40.568 61.7899 40.432 61.7899 40.274C61.7899 40.114 61.8209 39.977 61.8829 39.863C61.9469 39.749 62.0289 39.661 62.1289 39.599C62.2289 39.537 62.3339 39.506 62.4439 39.506C62.6299 39.506 62.7729 39.568 62.8729 39.692C62.9749 39.816 63.0259 39.982 63.0259 40.19C63.0259 40.216 63.0249 40.242 63.0229 40.268C63.0229 40.292 63.0209 40.313 63.0169 40.331H62.0329C62.0429 40.485 62.0909 40.608 62.1769 40.7C62.2649 40.792 62.3789 40.838 62.5189 40.838C62.5889 40.838 62.6529 40.828 62.7109 40.808C62.7709 40.786 62.8279 40.758 62.8819 40.724L62.9689 40.886C62.9069 40.926 62.8359 40.961 62.7559 40.991C62.6779 41.021 62.5889 41.036 62.4889 41.036ZM62.0299 40.154H62.8099C62.8099 40.006 62.7779 39.894 62.7139 39.818C62.6519 39.74 62.5639 39.701 62.4499 39.701C62.3479 39.701 62.2559 39.741 62.1739 39.821C62.0939 39.899 62.0459 40.01 62.0299 40.154ZM64.0833 41L63.5583 39.542H63.8133L64.0893 40.37C64.1113 40.442 64.1333 40.514 64.1553 40.586C64.1793 40.658 64.2023 40.729 64.2243 40.799H64.2363C64.2583 40.729 64.2803 40.658 64.3023 40.586C64.3263 40.514 64.3483 40.442 64.3683 40.37L64.6443 39.542H64.8873L64.3713 41H64.0833ZM66.1155 41.036C65.9855 41.036 65.8675 41.006 65.7615 40.946C65.6555 40.884 65.5715 40.796 65.5095 40.682C65.4475 40.568 65.4165 40.432 65.4165 40.274C65.4165 40.114 65.4475 39.977 65.5095 39.863C65.5735 39.749 65.6555 39.661 65.7555 39.599C65.8555 39.537 65.9605 39.506 66.0705 39.506C66.2565 39.506 66.3995 39.568 66.4995 39.692C66.6015 39.816 66.6525 39.982 66.6525 40.19C66.6525 40.216 66.6515 40.242 66.6495 40.268C66.6495 40.292 66.6475 40.313 66.6435 40.331H65.6595C65.6695 40.485 65.7175 40.608 65.8035 40.7C65.8915 40.792 66.0055 40.838 66.1455 40.838C66.2155 40.838 66.2795 40.828 66.3375 40.808C66.3975 40.786 66.4545 40.758 66.5085 40.724L66.5955 40.886C66.5335 40.926 66.4625 40.961 66.3825 40.991C66.3045 41.021 66.2155 41.036 66.1155 41.036ZM65.6565 40.154H66.4365C66.4365 40.006 66.4045 39.894 66.3405 39.818C66.2785 39.74 66.1905 39.701 66.0765 39.701C65.9745 39.701 65.8825 39.741 65.8005 39.821C65.7205 39.899 65.6725 40.01 65.6565 40.154ZM67.6413 41.036C67.5493 41.036 67.4823 41.008 67.4403 40.952C67.4003 40.894 67.3803 40.812 67.3803 40.706V38.864H67.6263V40.724C67.6263 40.762 67.6333 40.79 67.6473 40.808C67.6613 40.824 67.6773 40.832 67.6953 40.832C67.7033 40.832 67.7103 40.832 67.7163 40.832C67.7243 40.83 67.7353 40.828 67.7493 40.826L67.7823 41.012C67.7663 41.02 67.7473 41.026 67.7253 41.03C67.7033 41.034 67.6753 41.036 67.6413 41.036ZM69.0794 41.036C68.9614 41.036 68.8504 41.006 68.7464 40.946C68.6444 40.886 68.5614 40.799 68.4974 40.685C68.4354 40.571 68.4044 40.434 68.4044 40.274C68.4044 40.11 68.4354 39.971 68.4974 39.857C68.5614 39.743 68.6444 39.656 68.7464 39.596C68.8504 39.536 68.9614 39.506 69.0794 39.506C69.1994 39.506 69.3104 39.536 69.4124 39.596C69.5144 39.656 69.5964 39.743 69.6584 39.857C69.7224 39.971 69.7544 40.11 69.7544 40.274C69.7544 40.434 69.7224 40.571 69.6584 40.685C69.5964 40.799 69.5144 40.886 69.4124 40.946C69.3104 41.006 69.1994 41.036 69.0794 41.036ZM69.0794 40.832C69.2054 40.832 69.3064 40.781 69.3824 40.679C69.4604 40.575 69.4994 40.44 69.4994 40.274C69.4994 40.106 69.4604 39.97 69.3824 39.866C69.3064 39.762 69.2054 39.71 69.0794 39.71C68.9554 39.71 68.8544 39.762 68.7764 39.866C68.6984 39.97 68.6594 40.106 68.6594 40.274C68.6594 40.44 68.6984 40.575 68.7764 40.679C68.8544 40.781 68.9554 40.832 69.0794 40.832ZM70.5059 41.615V39.542H70.7099L70.7309 39.71H70.7399C70.8059 39.654 70.8779 39.606 70.9559 39.566C71.0359 39.526 71.1189 39.506 71.2049 39.506C71.3929 39.506 71.5359 39.574 71.6339 39.71C71.7319 39.844 71.7809 40.024 71.7809 40.25C71.7809 40.414 71.7509 40.555 71.6909 40.673C71.6329 40.791 71.5559 40.881 71.4599 40.943C71.3659 41.005 71.2629 41.036 71.1509 41.036C71.0829 41.036 71.0149 41.021 70.9469 40.991C70.8809 40.961 70.8139 40.92 70.7459 40.868L70.7519 41.123V41.615H70.5059ZM71.1089 40.829C71.2289 40.829 71.3279 40.778 71.4059 40.676C71.4859 40.572 71.5259 40.43 71.5259 40.25C71.5259 40.09 71.4959 39.961 71.4359 39.863C71.3779 39.763 71.2799 39.713 71.1419 39.713C71.0799 39.713 71.0169 39.73 70.9529 39.764C70.8909 39.798 70.8239 39.847 70.7519 39.911V40.676C70.8179 40.732 70.8819 40.772 70.9439 40.796C71.0059 40.818 71.0609 40.829 71.1089 40.829ZM73.1285 41.036C72.9985 41.036 72.8805 41.006 72.7745 40.946C72.6685 40.884 72.5845 40.796 72.5225 40.682C72.4605 40.568 72.4295 40.432 72.4295 40.274C72.4295 40.114 72.4605 39.977 72.5225 39.863C72.5865 39.749 72.6685 39.661 72.7685 39.599C72.8685 39.537 72.9735 39.506 73.0835 39.506C73.2695 39.506 73.4125 39.568 73.5125 39.692C73.6145 39.816 73.6655 39.982 73.6655 40.19C73.6655 40.216 73.6645 40.242 73.6625 40.268C73.6625 40.292 73.6605 40.313 73.6565 40.331H72.6725C72.6825 40.485 72.7305 40.608 72.8165 40.7C72.9045 40.792 73.0185 40.838 73.1585 40.838C73.2285 40.838 73.2925 40.828 73.3505 40.808C73.4105 40.786 73.4675 40.758 73.5215 40.724L73.6085 40.886C73.5465 40.926 73.4755 40.961 73.3955 40.991C73.3175 41.021 73.2285 41.036 73.1285 41.036ZM72.6695 40.154H73.4495C73.4495 40.006 73.4175 39.894 73.3535 39.818C73.2915 39.74 73.2035 39.701 73.0895 39.701C72.9875 39.701 72.8955 39.741 72.8135 39.821C72.7335 39.899 72.6855 40.01 72.6695 40.154ZM74.8913 41.036C74.7093 41.036 74.5633 40.97 74.4533 40.838C74.3433 40.704 74.2883 40.516 74.2883 40.274C74.2883 40.116 74.3173 39.98 74.3753 39.866C74.4353 39.75 74.5133 39.661 74.6093 39.599C74.7073 39.537 74.8113 39.506 74.9213 39.506C75.0053 39.506 75.0783 39.521 75.1403 39.551C75.2023 39.581 75.2653 39.622 75.3293 39.674L75.3173 39.425V38.864H75.5663V41H75.3623L75.3413 40.829H75.3323C75.2763 40.885 75.2103 40.934 75.1343 40.976C75.0583 41.016 74.9773 41.036 74.8913 41.036ZM74.9453 40.829C75.0733 40.829 75.1973 40.762 75.3173 40.628V39.866C75.2553 39.81 75.1953 39.771 75.1373 39.749C75.0813 39.725 75.0233 39.713 74.9633 39.713C74.8853 39.713 74.8143 39.737 74.7503 39.785C74.6883 39.831 74.6383 39.896 74.6003 39.98C74.5623 40.062 74.5433 40.159 74.5433 40.271C74.5433 40.445 74.5783 40.582 74.6483 40.682C74.7183 40.78 74.8173 40.829 74.9453 40.829ZM78.0379 41.036C77.9699 41.036 77.8989 41.02 77.8249 40.988C77.7529 40.954 77.6849 40.908 77.6209 40.85H77.6119L77.5909 41H77.3929V38.864H77.6389V39.446L77.6329 39.71C77.6989 39.652 77.7709 39.604 77.8489 39.566C77.9289 39.526 78.0089 39.506 78.0889 39.506C78.2789 39.506 78.4229 39.573 78.5209 39.707C78.6189 39.841 78.6679 40.021 78.6679 40.247C78.6679 40.413 78.6379 40.555 78.5779 40.673C78.5199 40.791 78.4429 40.881 78.3469 40.943C78.2529 41.005 78.1499 41.036 78.0379 41.036ZM77.9959 40.829C78.1159 40.829 78.2149 40.778 78.2929 40.676C78.3729 40.572 78.4129 40.43 78.4129 40.25C78.4129 40.09 78.3829 39.961 78.3229 39.863C78.2649 39.763 78.1669 39.713 78.0289 39.713C77.9669 39.713 77.9039 39.73 77.8399 39.764C77.7759 39.798 77.7089 39.847 77.6389 39.911V40.676C77.7029 40.732 77.7659 40.772 77.8279 40.796C77.8919 40.818 77.9479 40.829 77.9959 40.829ZM79.4309 41.627C79.3989 41.627 79.3679 41.624 79.3379 41.618C79.3099 41.612 79.2839 41.605 79.2599 41.597L79.3079 41.402C79.3239 41.406 79.3419 41.41 79.3619 41.414C79.3819 41.42 79.4009 41.423 79.4189 41.423C79.5009 41.423 79.5689 41.393 79.6229 41.333C79.6769 41.275 79.7189 41.201 79.7489 41.111L79.7819 41.003L79.1969 39.542H79.4519L79.7489 40.349C79.7709 40.411 79.7939 40.478 79.8179 40.55C79.8439 40.622 79.8679 40.692 79.8899 40.76H79.9019C79.9239 40.694 79.9449 40.625 79.9649 40.553C79.9849 40.481 80.0049 40.413 80.0249 40.349L80.2859 39.542H80.5259L79.9769 41.12C79.9429 41.216 79.9019 41.302 79.8539 41.378C79.8079 41.454 79.7499 41.514 79.6799 41.558C79.6119 41.604 79.5289 41.627 79.4309 41.627Z" fill="#F2F2F2"/>
</svg>
