<svg width="50" height="52" viewBox="0 0 50 52" fill="none" xmlns="http://www.w3.org/2000/svg">
<path d="M25.4792 1L2 10.6979L25.4792 20.3958L48.4479 10.6979L25.4792 1Z" fill="#8DC63F"/>
<path d="M25.4792 22.4375L38.2396 17.3333V23.9688L18.3333 30.6042L12.2083 28.5625V17.3333L25.4792 22.4375Z" fill="#8DC63F"/>
<path d="M8.125 35.7083L18.3333 32.6458C17.5167 34.5514 19.3542 41.2662 20.375 44.3854L10.6771 47.4479C5.36875 46.2229 6.76389 39.1111 8.125 35.7083Z" fill="#8DC63F"/>
<path d="M22.9271 43.3646C20.8854 40.9146 20.0347 34.8576 19.8646 32.1354L27.0104 29.5833C25.7854 33.2583 28.2014 38.941 29.5625 41.3229L22.9271 43.3646Z" fill="#8DC63F"/>
<path d="M32.1146 40.8125C28.8479 37.9542 28.7118 31.7951 29.0521 29.0729L38.2396 26.0104C37.0146 30.5021 39.7708 35.7083 41.3021 37.75L32.1146 40.8125Z" fill="#8DC63F"/>
<path d="M25.4792 44.8958L27.0104 50L29.0521 46.4271L33.1354 48.4688L31.6042 42.8542L25.4792 44.8958Z" fill="#8DC63F"/>
<path d="M43.3437 24.9896C41.9826 25.1597 39.4646 26.6229 40.2812 31.1146C40.6215 32.6458 41.9146 35.7083 44.3646 35.7083C45.7257 35.1979 47.9375 33.1562 45.8958 29.0729C45.0451 28.2222 43.3437 27.6437 43.3437 32.1354M2 10.6979L25.4792 1L48.4479 10.6979L25.4792 20.3958L2 10.6979ZM38.2396 17.3333L25.4792 22.4375L12.2083 17.3333V28.5625L18.3333 30.6042L38.2396 23.9688V17.3333ZM18.3333 32.6458L8.125 35.7083C6.76389 39.1111 5.36875 46.2229 10.6771 47.4479L20.375 44.3854C19.3542 41.2662 17.5167 34.5514 18.3333 32.6458ZM19.8646 32.1354C20.0347 34.8576 20.8854 40.9146 22.9271 43.3646L29.5625 41.3229C28.2014 38.941 25.7854 33.2583 27.0104 29.5833L19.8646 32.1354ZM29.0521 29.0729C28.7118 31.7951 28.8479 37.9542 32.1146 40.8125L41.3021 37.75C39.7708 35.7083 37.0146 30.5021 38.2396 26.0104L29.0521 29.0729ZM27.0104 50L25.4792 44.8958L31.6042 42.8542L33.1354 48.4688L29.0521 46.4271L27.0104 50Z" stroke="#8DC63F" stroke-width="1.02083"/>
</svg>
