<svg width="48" height="48" viewBox="0 0 48 48" fill="none" xmlns="http://www.w3.org/2000/svg">
<rect width="48" height="48" rx="5.875" fill="#7B61FF" fill-opacity="0.1"/>
<path d="M24.78 27.3328L23.22 26.2922L25.3734 23.0625H27.75V18.375H20.25V23.0625H22.125V24.9375H20.25C19.7529 24.937 19.2762 24.7393 18.9247 24.3878C18.5732 24.0363 18.3755 23.5596 18.375 23.0625V18.375C18.3755 17.8779 18.5732 17.4012 18.9247 17.0497C19.2762 16.6982 19.7529 16.5005 20.25 16.5H27.75C28.2471 16.5005 28.7238 16.6982 29.0753 17.0497C29.4268 17.4012 29.6245 17.8779 29.625 18.375V23.0625C29.6245 23.5596 29.4268 24.0363 29.0753 24.3878C28.7238 24.7393 28.2471 24.937 27.75 24.9375H26.3766L24.78 27.3328Z" fill="#7B61FF"/>
<path d="M24 37.125L16.0913 27.7978C15.9814 27.6578 15.8726 27.5168 15.765 27.375C14.4141 25.5954 13.6842 23.4218 13.6875 21.1875C13.6875 18.4525 14.774 15.8294 16.708 13.8955C18.6419 11.9615 21.265 10.875 24 10.875C26.7351 10.875 29.3581 11.9615 31.292 13.8955C33.226 15.8294 34.3125 18.4525 34.3125 21.1875C34.3158 23.4208 33.5863 25.5934 32.2359 27.3722L32.235 27.375C32.235 27.375 31.9538 27.7444 31.9116 27.7941L24 37.125ZM17.2613 26.2453C17.2631 26.2453 17.4806 26.5341 17.5303 26.5959L24 34.2263L30.4781 26.5856C30.5194 26.5341 30.7388 26.2434 30.7397 26.2425C31.8433 24.7885 32.4397 23.0128 32.4375 21.1875C32.4375 18.9497 31.5486 16.8036 29.9662 15.2213C28.3839 13.6389 26.2378 12.75 24 12.75C21.7622 12.75 19.6161 13.6389 18.0338 15.2213C16.4515 16.8036 15.5625 18.9497 15.5625 21.1875C15.5605 23.014 16.1576 24.7907 17.2622 26.2453H17.2613Z" fill="#7B61FF"/>
</svg>
