<svg width="48" height="48" viewBox="0 0 48 48" fill="none" xmlns="http://www.w3.org/2000/svg">
<rect width="48" height="48" rx="5.875" fill="#1890FF" fill-opacity="0.1"/>
<path d="M32.75 31.5H15.25V16.5H32.75V31.5ZM35.25 14H12.75C11.3625 14 10.25 15.1125 10.25 16.5V31.5C10.25 32.163 10.5134 32.7989 10.9822 33.2678C11.4511 33.7366 12.087 34 12.75 34H35.25C35.913 34 36.5489 33.7366 37.0178 33.2678C37.4866 32.7989 37.75 32.163 37.75 31.5V16.5C37.75 15.837 37.4866 15.2011 37.0178 14.7322C36.5489 14.2634 35.913 14 35.25 14ZM17.75 19H25.25V25.25H17.75V19ZM26.5 19H30.25V21.5H26.5V19ZM30.25 22.75V29H26.5V22.75H30.25ZM17.75 26.5H25.25V29H17.75V26.5Z" fill="#1890FF"/>
</svg>
