<svg width="48" height="48" viewBox="0 0 48 48" fill="none" xmlns="http://www.w3.org/2000/svg">
<rect width="48" height="48" rx="5.875" fill="#52C41A" fill-opacity="0.1"/>
<path d="M37.125 27.7501C37.1269 26.8114 36.8938 25.8871 36.447 25.0614C36.0002 24.2358 35.3538 23.5352 34.5669 23.0233C33.7799 22.5115 32.8774 22.2048 31.9415 22.1311C31.0056 22.0574 30.0662 22.2191 29.2088 22.6015C28.3514 22.9839 27.6034 23.5748 27.0329 24.3203C26.4624 25.0658 26.0875 25.9423 25.9425 26.8698C25.7975 27.7973 25.8869 28.7463 26.2026 29.6304C26.5184 30.5145 27.0503 31.3055 27.75 31.9314V39.0001L31.5 37.2245L35.25 39.0001V31.9314C35.8394 31.4058 36.3111 30.7616 36.6342 30.0411C36.9573 29.3205 37.1245 28.5398 37.125 27.7501ZM33.375 36.0376L31.5 35.1498L29.625 36.0376V33.047C30.8367 33.4846 32.1633 33.4846 33.375 33.047V36.0376ZM31.5 31.5001C30.7583 31.5001 30.0333 31.2802 29.4166 30.8681C28.7999 30.4561 28.3193 29.8704 28.0354 29.1852C27.7516 28.4999 27.6774 27.7459 27.822 27.0185C27.9667 26.2911 28.3239 25.6229 28.8484 25.0984C29.3728 24.574 30.041 24.2169 30.7684 24.0722C31.4959 23.9275 32.2499 24.0018 32.935 24.2856C33.6203 24.5694 34.2059 25.0501 34.618 25.6668C35.03 26.2834 35.25 27.0084 35.25 27.7501C35.2487 28.7443 34.8533 29.6974 34.1503 30.4004C33.4473 31.1034 32.4942 31.4989 31.5 31.5001Z" fill="#52C41A"/>
<path d="M32.4375 13.6875H29.625V12.75C29.6235 12.2532 29.4255 11.7771 29.0742 11.4258C28.7229 11.0745 28.2468 10.8765 27.75 10.875H20.25C19.7532 10.8765 19.2771 11.0745 18.9258 11.4258C18.5745 11.7771 18.3765 12.2532 18.375 12.75V13.6875H15.5625C15.0657 13.689 14.5896 13.887 14.2383 14.2383C13.887 14.5896 13.689 15.0657 13.6875 15.5625V35.25C13.689 35.7468 13.887 36.2229 14.2383 36.5742C14.5896 36.9255 15.0657 37.1235 15.5625 37.125H24V35.25H15.5625V15.5625H18.375V18.375H29.625V15.5625H32.4375V20.25H34.3125V15.5625C34.311 15.0657 34.113 14.5896 33.7617 14.2383C33.4104 13.887 32.9343 13.689 32.4375 13.6875ZM27.75 16.5H20.25V12.75H27.75V16.5Z" fill="#52C41A"/>
</svg>
